<svg xmlns="http://www.w3.org/2000/svg" xmlns:xlink="http://www.w3.org/1999/xlink" id="svg4633" version="1.1" viewBox="0 0 165.55508 190.28658" height="190.28658mm" width="165.55508mm">
  
  <defs id="defs4630">
    <linearGradient gradientTransform="translate(193.13663,-346.21336)" gradientUnits="userSpaceOnUse" y2="208.14508" x2="58.170101" y1="124.01085" x1="78.07132" id="linearGradient4522" xlink:href="#linearGradient4520"></linearGradient>
    <linearGradient id="linearGradient4520">
      <stop id="stop4516" offset="0" style="stop-color:#0066cc;stop-opacity:1;"></stop>
      <stop id="stop4518" offset="1" style="stop-color:#002352;stop-opacity:1;"></stop>
    </linearGradient>
    
    
    <linearGradient gradientTransform="translate(193.13663,-346.21336)" gradientUnits="userSpaceOnUse" y2="171.82298" x2="195.22147" y1="171.82298" x1="118.46795" id="linearGradient4530" xlink:href="#linearGradient4520"></linearGradient>
    
  </defs>
  <g transform="translate(-226.8072,292.72379)" id="layer1">
    <path id="path1635" d="m 309.58475,-291.00527 80.79317,46.64595 -80.79316,46.64596 -80.79318,-46.64595 z" style="fill:#ffffff;fill-opacity:1;stroke:#4d4d4d;stroke-width:3.96875;stroke-linecap:round;stroke-linejoin:bevel;stroke-dasharray:none;stroke-opacity:1;paint-order:stroke fill markers"></path>
    <path id="path1691" d="m 390.37792,-244.35932 v 93.29191 l -80.79316,46.64596 v -93.29191 z" style="fill:#ffffff;fill-opacity:1;stroke:#4d4d4d;stroke-width:3.96875;stroke-linecap:round;stroke-linejoin:round;stroke-dasharray:none;stroke-opacity:1;paint-order:stroke fill markers"></path>
    <path id="path1747" d="m 228.79158,-244.35931 80.79317,46.64595 1e-5,93.29191 -80.79318,-46.64596 z" style="fill:#ffffff;fill-opacity:1;stroke:#4d4d4d;stroke-width:3.96875;stroke-linecap:round;stroke-linejoin:bevel;stroke-dasharray:none;stroke-opacity:1;paint-order:stroke fill markers"></path>
    <path d="m 236.06238,-237.82919 c -2.90902,-1.67952 -5.25097,-0.23369 -5.25097,3.24208 v 76.07963 c 0,3.47576 2.34195,7.62607 5.25097,9.30559 l 66.25157,38.25036 c 2.90904,1.67954 5.25098,0.23348 5.25098,-3.24229 v -76.07964 c 0,-3.47576 -2.34194,-7.62585 -5.25098,-9.30539 z m 33.1257,35.68595 c 13.21592,7.63022 23.96535,26.67996 23.96535,42.47053 0,11.83686 -6.22727,19.00848 -15.49512,17.84485 -0.25642,-0.0313 -0.54552,-0.20792 -0.79786,-0.49468 -0.25236,-0.27707 -0.44762,-0.64262 -0.54531,-1.00541 l -5.15701,-19.29802 c -0.20352,-0.75945 0.0651,-1.32413 0.60645,-1.25473 2.82063,0.35923 4.71737,-1.81862 4.71737,-5.41732 0,-4.80478 -3.27252,-10.60399 -7.29387,-12.92572 -4.02135,-2.32172 -7.29368,-0.30118 -7.29368,4.5036 0,3.5987 1.89671,7.96669 4.71735,10.86446 0.54134,0.55569 0.80996,1.43054 0.60644,1.95498 l -5.157,13.33841 c -0.0977,0.25485 -0.29295,0.39007 -0.54531,0.38054 -0.1343,2.3e-4 -0.28087,-0.0504 -0.42739,-0.13495 -0.12619,-0.0729 -0.25243,-0.17007 -0.37048,-0.29183 -9.26783,-9.53791 -15.49511,-23.90019 -15.49511,-35.73705 0,-15.79056 10.74926,-22.42803 23.96518,-14.79782 z" style="opacity:0.802502;fill:url(#linearGradient4522);fill-opacity:1;stroke-width:13.2292;stroke-linecap:round;stroke-linejoin:bevel;paint-order:stroke fill markers" id="rect4198"></path>
    <path d="m 238.08224,-247.39092 c -2.90902,1.67952 -2.82785,4.43062 0.18225,6.1685 l 65.88691,38.03982 c 3.0101,1.73788 7.77534,1.78485 10.68436,0.10533 l 66.25157,-38.25037 c 2.90903,-1.67953 2.82767,-4.43074 -0.18243,-6.16862 l -65.88691,-38.03983 c -3.01009,-1.73788 -7.77514,-1.78474 -10.68417,-0.10521 z m 29.5057,-7.27937 21.94408,0.21632 0.0287,0.97097 c -3.88127,-0.0383 -5.80482,0.52173 -5.77058,1.68004 0.0111,0.37476 0.0804,0.69901 0.20785,0.97273 0.12748,0.27372 0.40871,0.70219 0.84381,1.28546 l 13.4662,19.3416 9.15748,-14.31639 -3.07976,-4.21953 c -1.49353,-2.05821 -2.78513,-3.34809 -3.87505,-3.86971 -1.08996,-0.52162 -2.85893,-0.79455 -5.3071,-0.81867 l -0.0289,-0.97086 23.9148,0.23574 0.0285,0.97085 c -2.03021,-0.02 -3.52029,0.0505 -4.47063,0.21143 -1.60317,0.29071 -2.39264,0.84487 -2.36844,1.66251 0.009,0.3066 0.26379,0.85404 0.76467,1.64231 0.55957,0.75479 1.15003,1.54401 1.77133,2.36753 l 12.33841,17.54228 10.6838,-17.21317 c 0.40085,-0.57503 0.71054,-1.20211 0.92925,-1.88111 0.2784,-0.67841 0.41002,-1.2732 0.39487,-1.78422 -0.0262,-0.88578 -0.58176,-1.50425 -1.66665,-1.85553 -1.02516,-0.35069 -2.55283,-0.53593 -4.58304,-0.55595 l -0.0287,-0.97095 17.73439,0.17483 0.0287,0.97095 c -2.20329,0.18263 -3.77605,0.49068 -4.71835,0.92416 -0.88346,0.40004 -1.63865,1.10765 -2.26525,2.12322 -1.87981,3.0467 -3.9024,6.31342 -6.06767,9.80004 -2.79087,4.53629 -4.83923,7.9389 -6.14512,10.20793 -2.10052,3.65756 -3.94078,7.02829 -5.52104,10.112 l -1.34376,-0.0132 c -1.12722,-1.78214 -2.59627,-4.02746 -4.4075,-6.73591 -1.31037,-1.92017 -3.18093,-4.61217 -5.61142,-8.076 -0.81053,-1.16595 -2.46086,-3.48126 -4.9511,-6.94568 l -13.15412,21.48035 -1.34356,-0.0134 c -2.38393,-3.90614 -5.54458,-8.84158 -9.48174,-14.8065 -3.31183,-5.00515 -6.18388,-9.27379 -8.61642,-12.80576 -1.18388,-1.68052 -2.14582,-2.91599 -2.88554,-3.70662 -1.47842,-1.54719 -3.65055,-2.33488 -6.51672,-2.36314 z" style="opacity:0.802502;fill:#0066cc;fill-opacity:1;stroke-width:13.2292;stroke-linecap:round;stroke-linejoin:bevel;paint-order:stroke fill markers" id="rect4252"></path>
    <path d="m 316.85555,-199.57886 c -2.90903,1.67953 -5.25097,5.82981 -5.25097,9.30559 l 10e-6,76.07944 c 0,3.47576 2.34194,4.92182 5.25097,3.24229 l 66.25156,-38.25037 c 2.90905,-1.67954 5.25097,-5.82983 5.25097,-9.30559 l 0,-76.07943 c 0,-3.47578 -2.34192,-4.92183 -5.25097,-3.24229 z m 32.12828,-2.2441 5.02862,-2.90327 c 0.37916,-0.21891 0.64108,0.0828 0.50564,0.59252 l -1.30003,4.80652 2.22995,-1.28747 1.58893,-5.85777 5.0288,-2.90337 c 0.37918,-0.21892 0.64091,0.0829 0.50548,0.59261 l -1.35419,4.99951 c 7.8094,-3.5703 19.1127,-4.5947 8.23373,22.9799 -5.38984,13.67235 -14.4632,23.91597 -22.90456,31.08723 l -1.46265,5.40733 c -0.15353,0.54171 -0.52363,1.05757 -0.92993,1.29215 l -5.13689,2.96579 1.30004,-4.78503 c -0.7945,0.56651 -1.56189,1.10674 -2.32027,1.62011 l -0.96607,3.55645 c -0.15352,0.54171 -0.52364,1.05758 -0.92992,1.29215 l -5.13707,2.96588 1.11961,-4.13075 c -3.56613,2.05891 -5.84134,3.0382 -5.84134,3.0382 l 11.28528,-39.65351 9.34426,-5.39492 c 0.80349,-0.46389 1.35419,0.16749 1.06527,1.22959 l -6.96983,25.70601 c 13.4791,-7.98712 19.69064,-24.47458 20.54832,-32.25101 0.5146,-4.64429 -1.53493,-5.39185 -3.26833,-5.24325 -0.90282,0.079 -1.86886,0.42099 -2.8439,0.98393 l -23.90661,13.80249 -5.48014,3.16396 3.91828,-10.52522 c 0.35209,-0.94759 1.02015,-1.7971 1.73336,-2.20887 l 15.72723,-9.08012 z" style="opacity:0.802502;fill:url(#linearGradient4530);fill-opacity:1;stroke-width:13.2292;stroke-linecap:round;stroke-linejoin:bevel;paint-order:stroke fill markers" id="rect4422"></path>
  </g>
</svg>
