<svg xmlns="http://www.w3.org/2000/svg" xmlns:xlink="http://www.w3.org/1999/xlink" id="svg4633" version="1.1" viewBox="0 0 67.733333 67.733335" height="256" width="256">
  
  <defs id="defs4630">
    
    
    
    <linearGradient gradientTransform="translate(166.67582,-391.17497)" gradientUnits="userSpaceOnUse" y2="208.14508" x2="58.170101" y1="124.01085" x1="78.07132" id="linearGradient4522" xlink:href="#linearGradient4520"></linearGradient>
    <linearGradient id="linearGradient4520">
      <stop id="stop4516" offset="0" style="stop-color:#0066cc;stop-opacity:1;"></stop>
      <stop id="stop4518" offset="1" style="stop-color:#002352;stop-opacity:1;"></stop>
    </linearGradient>
    
    
    <linearGradient gradientTransform="translate(166.67582,-391.17497)" gradientUnits="userSpaceOnUse" y2="171.82298" x2="195.22147" y1="171.82298" x1="118.46795" id="linearGradient4530" xlink:href="#linearGradient4520"></linearGradient>
    
  </defs>
  <g transform="translate(-226.8072,292.72379)" id="layer1">
    <g transform="matrix(0.17797718,0,0,0.17797718,210.28427,-215.69016)" id="g5726">
      <path id="path1635" d="m 283.12394,-335.96688 80.79317,46.64595 -80.79316,46.64596 -80.79318,-46.64595 z" style="fill:#ffffff;fill-opacity:1;stroke:#4d4d4d;stroke-width:3.96875;stroke-linecap:round;stroke-linejoin:bevel;stroke-dasharray:none;stroke-opacity:1;paint-order:stroke fill markers"></path>
      <path id="path1691" d="m 363.91711,-289.32093 v 93.29191 l -80.79316,46.64596 v -93.29191 z" style="fill:#ffffff;fill-opacity:1;stroke:#4d4d4d;stroke-width:3.96875;stroke-linecap:round;stroke-linejoin:round;stroke-dasharray:none;stroke-opacity:1;paint-order:stroke fill markers"></path>
      <path id="path1747" d="m 202.33077,-289.32092 80.79317,46.64595 10e-6,93.29191 -80.79318,-46.64596 z" style="fill:#ffffff;fill-opacity:1;stroke:#4d4d4d;stroke-width:3.96875;stroke-linecap:round;stroke-linejoin:bevel;stroke-dasharray:none;stroke-opacity:1;paint-order:stroke fill markers"></path>
      <path d="m 209.60157,-282.7908 c -2.90902,-1.67952 -5.25097,-0.23369 -5.25097,3.24208 v 76.07963 c 0,3.47576 2.34195,7.62607 5.25097,9.30559 l 66.25157,38.25036 c 2.90904,1.67954 5.25098,0.23348 5.25098,-3.24229 v -76.07964 c 0,-3.47576 -2.34194,-7.62585 -5.25098,-9.30539 z m 33.1257,35.68595 c 13.21592,7.63022 23.96535,26.67996 23.96535,42.47053 0,11.83686 -6.22727,19.00848 -15.49512,17.84485 -0.25642,-0.0313 -0.54552,-0.20792 -0.79786,-0.49468 -0.25236,-0.27707 -0.44762,-0.64262 -0.54531,-1.00541 l -5.15701,-19.29802 c -0.20352,-0.75945 0.0651,-1.32413 0.60645,-1.25473 2.82063,0.35923 4.71737,-1.81862 4.71737,-5.41732 0,-4.80478 -3.27252,-10.60399 -7.29387,-12.92572 -4.02135,-2.32172 -7.29368,-0.30118 -7.29368,4.5036 0,3.5987 1.89671,7.96669 4.71735,10.86446 0.54134,0.55569 0.80996,1.43054 0.60644,1.95498 l -5.157,13.33841 c -0.0977,0.25485 -0.29295,0.39007 -0.54531,0.38054 -0.1343,2.3e-4 -0.28087,-0.0504 -0.42739,-0.13495 -0.12619,-0.0729 -0.25243,-0.17007 -0.37048,-0.29183 -9.26783,-9.53791 -15.49511,-23.90019 -15.49511,-35.73705 0,-15.79056 10.74926,-22.42803 23.96518,-14.79782 z" style="opacity:0.802502;fill:url(#linearGradient4522);fill-opacity:1;stroke-width:13.2292;stroke-linecap:round;stroke-linejoin:bevel;paint-order:stroke fill markers" id="rect4198"></path>
      <path d="m 213.05148,-293.14213 c -2.85084,1.64593 -2.77128,4.34202 0.17862,6.04514 l 64.56916,37.27901 c 2.94989,1.70313 7.61983,1.74916 10.47067,0.10323 l 64.92653,-37.48536 c 2.85086,-1.64594 2.77112,-4.34213 -0.17877,-6.04526 l -64.56916,-37.27901 c -2.94989,-1.70312 -7.61963,-1.74904 -10.47049,-0.1031 z m 28.91559,-7.13377 21.50521,0.21199 0.0281,0.95155 c -3.80364,-0.0375 -5.68872,0.51129 -5.65515,1.64644 0.0109,0.36727 0.0787,0.68504 0.20368,0.95327 0.12493,0.26826 0.40053,0.68815 0.82694,1.25975 l 13.19687,18.95477 8.97433,-14.03006 -3.01817,-4.13513 c -1.46364,-2.01705 -2.72942,-3.28114 -3.79755,-3.79232 -1.06813,-0.51119 -2.80175,-0.77866 -5.20097,-0.80231 l -0.0283,-0.95143 23.43648,0.23102 0.028,0.95143 c -1.98962,-0.0196 -3.4499,0.0495 -4.38124,0.2072 -1.57109,0.28491 -2.34477,0.82799 -2.32106,1.62926 0.009,0.30048 0.25851,0.83696 0.74938,1.60947 0.54838,0.73969 1.12703,1.51313 1.7359,2.32018 l 12.09165,17.19143 10.47012,-16.8689 c 0.39283,-0.56354 0.69633,-1.17807 0.91065,-1.8435 0.27284,-0.66483 0.40182,-1.24773 0.38698,-1.74853 -0.0256,-0.86806 -0.57012,-1.47416 -1.63332,-1.81841 -1.00465,-0.34368 -2.50176,-0.52523 -4.49136,-0.54484 l -0.0282,-0.95154 17.37971,0.17133 0.0281,0.95155 c -2.1592,0.17897 -3.70051,0.48087 -4.62397,0.90566 -0.86575,0.39207 -1.60592,1.08548 -2.21994,2.08077 -1.84221,2.98576 -3.82436,6.18714 -5.94632,9.60404 -2.73506,4.44556 -4.74244,7.78011 -6.02221,10.00376 -2.05851,3.58442 -3.86198,6.88773 -5.41062,9.90977 l -1.31689,-0.013 c -1.10467,-1.7465 -2.54435,-3.94691 -4.31936,-6.60119 -1.28416,-1.88176 -3.11729,-4.51992 -5.49917,-7.91447 -0.79433,-1.14264 -2.41165,-3.41164 -4.8521,-6.80677 l -12.89102,21.05073 -1.31669,-0.0131 c -2.33627,-3.82801 -5.43369,-8.66474 -9.2921,-14.51036 -3.24559,-4.90505 -6.06021,-9.08832 -8.44408,-12.54964 -1.16023,-1.64692 -2.10291,-2.85768 -2.82783,-3.63249 -1.44887,-1.51626 -3.57754,-2.28819 -6.38638,-2.31588 z" style="opacity:0.802502;fill:#0066cc;fill-opacity:1;stroke-width:12.9646;stroke-linecap:round;stroke-linejoin:bevel;paint-order:stroke fill markers" id="rect4252"></path>
      <path d="m 290.39474,-244.54047 c -2.90903,1.67953 -5.25097,5.82981 -5.25097,9.30559 l 10e-6,76.07944 c 0,3.47576 2.34194,4.92182 5.25097,3.24229 l 66.25156,-38.25037 c 2.90905,-1.67954 5.25097,-5.82983 5.25097,-9.30559 v -76.07943 c 0,-3.47578 -2.34192,-4.92183 -5.25097,-3.24229 z m 32.12828,-2.2441 5.02862,-2.90327 c 0.37916,-0.21891 0.64108,0.0828 0.50564,0.59252 l -1.30003,4.80652 2.22995,-1.28747 1.58893,-5.85777 5.0288,-2.90337 c 0.37918,-0.21892 0.64091,0.0829 0.50548,0.59261 l -1.35419,4.99951 c 7.8094,-3.5703 19.1127,-4.5947 8.23373,22.9799 -5.38984,13.67235 -14.4632,23.91597 -22.90456,31.08723 l -1.46265,5.40733 c -0.15353,0.54171 -0.52363,1.05757 -0.92993,1.29215 l -5.13689,2.96579 1.30004,-4.78503 c -0.7945,0.56651 -1.56189,1.10674 -2.32027,1.62011 l -0.96607,3.55645 c -0.15352,0.54171 -0.52364,1.05758 -0.92992,1.29215 l -5.13707,2.96588 1.11961,-4.13075 c -3.56613,2.05891 -5.84134,3.0382 -5.84134,3.0382 l 11.28528,-39.65351 9.34426,-5.39492 c 0.80349,-0.46389 1.35419,0.16749 1.06527,1.22959 l -6.96983,25.70601 c 13.4791,-7.98712 19.69064,-24.47458 20.54832,-32.25101 0.5146,-4.64429 -1.53493,-5.39185 -3.26833,-5.24325 -0.90282,0.079 -1.86886,0.42099 -2.8439,0.98393 l -23.90661,13.80249 -5.48014,3.16396 3.91828,-10.52522 c 0.35209,-0.94759 1.02015,-1.7971 1.73336,-2.20887 l 15.72723,-9.08012 z" style="opacity:0.802502;fill:url(#linearGradient4530);fill-opacity:1;stroke-width:13.2292;stroke-linecap:round;stroke-linejoin:bevel;paint-order:stroke fill markers" id="rect4422"></path>
    </g>
  </g>
</svg>
