<svg xmlns="http://www.w3.org/2000/svg" xmlns:xlink="http://www.w3.org/1999/xlink" xml:space="preserve" id="svg5" version="1.1" viewBox="0 0 179.58372 137.66229" height="137.66229mm" width="179.58372mm"><defs id="defs2"><linearGradient id="linearGradient3513"><stop id="stop3509" offset="0" style="stop-color:#00285c;stop-opacity:1;"></stop><stop id="stop3511" offset="1" style="stop-color:#ffffff;stop-opacity:0;"></stop></linearGradient>
	
	
<radialGradient gradientUnits="userSpaceOnUse" gradientTransform="matrix(1,0,0,0.76882592,0,43.162497)" r="28.079998" fy="186.70993" fx="123.25655" cy="186.70993" cx="123.25655" id="radialGradient3515" xlink:href="#linearGradient3513"></radialGradient><radialGradient r="28.079998" fy="186.70993" fx="123.25655" cy="186.70993" cx="123.25655" gradientTransform="matrix(1,0,0,0.76882592,0,43.162497)" gradientUnits="userSpaceOnUse" id="radialGradient3651" xlink:href="#linearGradient3513"></radialGradient></defs><g transform="translate(-19.819789,-86.396682)" id="layer1"><g transform="matrix(3.3422627,0,0,3.3422627,-302.34411,-468.80581)" id="g3649"><path id="path3286" d="m 98.006473,167.43867 h 50.500147 l -17.90864,38.54252 h -14.68287 z" style="opacity:1;fill:#002352;fill-opacity:1;stroke:none;stroke-width:0.264583"></path><g style="font-weight:bold;font-size:55.6169px;font-family:Ubuntu;-inkscape-font-specification:'Ubuntu, Bold';opacity:1;fill:#0066cc;stroke-width:4.63474" id="text2795" aria-label="W"><path id="path3281" d="m 127.20535,171.55432 q 0.6674,2.2803 1.44604,5.17238 0.83425,2.83646 1.72412,5.89539 0.94549,3.05893 1.89097,6.11786 0.94549,3.05893 1.83536,5.67292 0.72302,-2.83646 1.44604,-6.17348 0.77864,-3.33701 1.44604,-6.89649 0.6674,-3.55948 1.27919,-7.06335 0.6674,-3.55948 1.22357,-6.84088 h 9.00994 q -1.94659,9.67734 -4.50497,19.63277 -2.50276,9.95542 -5.45046,18.90975 h -7.95321 q -1.94659,-5.33923 -3.78195,-11.179 -1.83536,-5.89539 -3.6151,-11.79078 -1.77974,5.89539 -3.55948,11.79078 -1.77974,5.83977 -3.72634,11.179 h -7.95321 q -2.9477,-8.95433 -5.50608,-18.90975 -2.502756,-9.95543 -4.449347,-19.63277 h 9.399257 q 0.55617,3.2814 1.22357,6.84088 0.6674,3.50387 1.39042,7.06335 0.72302,3.55948 1.44604,6.89649 0.77864,3.33702 1.55728,6.17348 1.0011,-2.72523 1.94659,-5.78416 0.94548,-3.05893 1.83536,-6.11786 0.88987,-3.05893 1.61289,-5.89539 0.77863,-2.83646 1.39042,-5.06114 z"></path></g><g style="font-weight:bold;font-size:55.6169px;font-family:Ubuntu;-inkscape-font-specification:'Ubuntu, Bold';opacity:1;fill:#0066cc;stroke:url(#radialGradient3515);stroke-width:2.64583;stroke-dasharray:none;stroke-opacity:1" id="g3346" aria-label="W"><path style="stroke:url(#radialGradient3651);stroke-width:2.64583;stroke-dasharray:none;stroke-opacity:1" id="path3344" d="m 127.20535,171.55432 q 0.6674,2.2803 1.44604,5.17238 0.83425,2.83646 1.72412,5.89539 0.94549,3.05893 1.89097,6.11786 0.94549,3.05893 1.83536,5.67292 0.72302,-2.83646 1.44604,-6.17348 0.77864,-3.33701 1.44604,-6.89649 0.6674,-3.55948 1.27919,-7.06335 0.6674,-3.55948 1.22357,-6.84088 h 9.00994 q -1.94659,9.67734 -4.50497,19.63277 -2.50276,9.95542 -5.45046,18.90975 h -7.95321 q -1.94659,-5.33923 -3.78195,-11.179 -1.83536,-5.89539 -3.6151,-11.79078 -1.77974,5.89539 -3.55948,11.79078 -1.77974,5.83977 -3.72634,11.179 h -7.95321 q -2.9477,-8.95433 -5.50608,-18.90975 -2.502756,-9.95543 -4.449347,-19.63277 h 9.399257 q 0.55617,3.2814 1.22357,6.84088 0.6674,3.50387 1.39042,7.06335 0.72302,3.55948 1.44604,6.89649 0.77864,3.33702 1.55728,6.17348 1.0011,-2.72523 1.94659,-5.78416 0.94548,-3.05893 1.83536,-6.11786 0.88987,-3.05893 1.61289,-5.89539 0.77863,-2.83646 1.39042,-5.06114 z"></path></g><path style="stroke-width:0.0604599" id="path2146" d="m 130.78084,173.87126 0.9069,-2.36398 c 0.0907,-0.24184 -0.0846,-0.49578 -0.33858,-0.49578 h -3.36761 l -1.06409,2.76907 h -1.49336 l 0.87061,-2.27329 c 0.0907,-0.24184 -0.0846,-0.49578 -0.33857,-0.49578 h -3.36761 l -1.06411,2.76907 h -10.53211 c -0.47764,0 -0.92503,0.25998 -1.16084,0.67714 l -2.62395,4.63124 h 3.66991 16.00979 c 0.65297,0 1.29989,0.12092 1.90449,0.36882 1.16082,0.47763 2.53327,1.55987 2.18864,3.99637 -0.57436,4.08106 -4.73401,11.31206 -13.76067,11.42693 l 4.66751,-12.15244 c 0.19346,-0.50182 -0.17534,-1.03386 -0.71344,-1.03386 h -6.2576 l -7.55748,18.57328 c 0,0 1.52359,0.18744 3.91175,0.18744 l -0.7497,1.95285 h 3.44017 c 0.27207,0 0.51995,-0.16929 0.62274,-0.42322 l 0.64692,-1.68078 c 0.50786,-0.0423 1.02177,-0.0968 1.55382,-0.15721 l -0.87062,2.26123 h 3.44016 c 0.27207,0 0.51996,-0.1693 0.62274,-0.42323 l 0.97946,-2.55746 c 5.65299,-1.28781 11.72922,-4.09313 15.33868,-10.01217 7.28542,-11.93481 -0.28417,-15.01826 -5.51395,-15.54424 z" class="st2"></path></g></g><style id="style2138" type="text/css">
	.st0{fill:#0066CC;}
	.st1{fill:#002352;}
	.st2{fill:#FFFFFF;}
</style></svg>
