<svg xmlns="http://www.w3.org/2000/svg" id="svg5" version="1.1" viewBox="0 0 33.86667 33.86667" height="26" width="26">
  
  <defs id="defs2"></defs>
  <g transform="translate(-46.242958,-146.40605)" id="layer1">
    <path d="m 63.177386,146.40605 c -9.338759,0 -16.934427,7.59568 -16.934427,16.93443 0,9.33875 7.595668,16.93224 16.934427,16.93224 9.338759,0 16.932241,-7.59349 16.93224,-16.93224 0,-9.33875 -7.593481,-16.93443 -16.93224,-16.93443 z m 0,2.24082 c 8.128024,0 14.693605,6.56559 14.693605,14.69361 0,8.12802 -6.565581,14.69141 -14.693605,14.69141 -8.128025,0 -14.693605,-6.56339 -14.693605,-14.69141 0,-8.12802 6.56558,-14.69361 14.693605,-14.69361 z m -1.778657,4.20381 0.923786,11.31623 v 3.47363 h 1.695522 v -3.47363 l 0.936912,-11.31623 z m 1.77811,17.29869 c -0.523785,0 -0.960189,0.17926 -1.309379,0.53764 -0.34919,0.35837 -0.523424,0.79478 -0.523424,1.30938 0,0.5146 0.174234,0.951 0.523424,1.30937 0.34919,0.34919 0.785594,0.52397 1.309379,0.52397 0.505406,0 0.937328,-0.17926 1.295707,-0.53764 0.35838,-0.35838 0.537644,-0.7903 0.537644,-1.2957 0,-0.5146 -0.179264,-0.95101 -0.537644,-1.30938 -0.358379,-0.35838 -0.790301,-0.53764 -1.295707,-0.53764 z" style="color:#000000;opacity:0.8;fill:#c87137;fill-opacity:1;stroke-width:1.0584;stroke-linecap:round;stroke-linejoin:round" id="hint_warning-exclamation"></path>
  </g>
</svg>
