<svg xmlns="http://www.w3.org/2000/svg" id="svg5" version="1.1" viewBox="0 0 33.866678 33.866682" height="26" width="26">
  
  <defs id="defs2"></defs>
  <g transform="translate(-104.88094,-146.40605)" id="layer1">
    <path d="m 121.81318,146.40605 c -9.33876,0 -16.93224,7.59568 -16.93224,16.93443 0,9.33876 7.59348,16.93225 16.93224,16.93225 9.33876,0 16.93443,-7.59349 16.93443,-16.93225 0,-9.33875 -7.59567,-16.93443 -16.93443,-16.93443 z m 0,2.24082 c 8.12802,0 14.69361,6.56559 14.69361,14.69361 0,8.12803 -6.56559,14.69142 -14.69361,14.69142 -8.12804,0 -14.69361,-6.56339 -14.69361,-14.69142 0,-8.12802 6.56557,-14.69361 14.69361,-14.69361 z m -0.38559,4.30717 c -0.4319,0 -0.80443,0.15631 -1.11686,0.46873 -0.30325,0.31243 -0.45451,0.67994 -0.45451,1.10264 0,0.43189 0.15126,0.79939 0.45451,1.10263 0.31243,0.30325 0.68496,0.45452 1.11686,0.45452 0.43189,0 0.79938,-0.15127 1.10263,-0.45452 0.30325,-0.30324 0.45451,-0.67074 0.45451,-1.10263 0,-0.4227 -0.1563,-0.79021 -0.46873,-1.10264 -0.30324,-0.31242 -0.66571,-0.46873 -1.08841,-0.46873 z m -3.29479,6.11974 v 1.4751 h 2.42624 v 11.71606 h -2.42624 v 1.46144 h 7.36075 v -1.46144 h -2.39834 v -13.19116 z" style="color:#000000;opacity:0.8;fill:#0066cc;fill-opacity:1;stroke-width:1.0584;stroke-linecap:round;stroke-linejoin:round" id="hint_info"></path>
  </g>
</svg>
